<svg xmlns="http://www.w3.org/2000/svg" width="300" height="440" viewBox="0 0 300 440"><defs><radialGradient id="bg"><stop stop-color="#31525b"/><stop offset="1" stop-color="#0c202c"/></radialGradient><pattern id="lines" width="12" height="12" patternUnits="userSpaceOnUse"><path d="M0 12L12 0" stroke="#cfb57b" opacity=".05"/></pattern></defs><rect width="300" height="440" rx="12" fill="#091820"/><rect x="7" y="7" width="286" height="426" rx="7" fill="url(#bg)" stroke="#c6a775" stroke-width="3"/><rect x="14" y="14" width="272" height="412" fill="url(#lines)" stroke="#967b51"/><circle cx="150" cy="184" r="112" fill="none" stroke="#bb9c62" opacity=".2"/><path d="M25 51h250M25 315h250" stroke="#b3935a"/><text x="150" y="37" text-anchor="middle" fill="#c4af85" font-family="serif" font-size="14" letter-spacing="6">1622 · 海疆</text><g stroke="#eccd94" stroke-width="3"><path d="M92 83h121v186H92Z" fill="#914333"/><path d="M77 76h149v18H77Zm0 184h149v17H77Z" fill="#a88347"/><circle cx="151" cy="168" r="43" fill="#152f39"/><text x="151" y="188" text-anchor="middle" font-size="57" fill="#efd8a6" stroke="none" font-family="serif">令</text></g><rect x="27" y="324" width="246" height="53" rx="4" fill="#9e4939" stroke="#dcba7b"/><text x="150" y="359" text-anchor="middle" fill="#fff0c5" font-family="serif" font-weight="bold" font-size="31">经略军令</text><text x="150" y="403" text-anchor="middle" fill="#d6cbb0" font-family="sans-serif" font-size="13">军令 · 强制交换一件军器</text></svg>