<svg xmlns="http://www.w3.org/2000/svg" width="300" height="440" viewBox="0 0 300 440"><defs><radialGradient id="bg"><stop stop-color="#31525b"/><stop offset="1" stop-color="#0c202c"/></radialGradient><pattern id="lines" width="12" height="12" patternUnits="userSpaceOnUse"><path d="M0 12L12 0" stroke="#cfb57b" opacity=".05"/></pattern></defs><rect width="300" height="440" rx="12" fill="#091820"/><rect x="7" y="7" width="286" height="426" rx="7" fill="url(#bg)" stroke="#c6a775" stroke-width="3"/><rect x="14" y="14" width="272" height="412" fill="url(#lines)" stroke="#967b51"/><circle cx="150" cy="184" r="112" fill="none" stroke="#bb9c62" opacity=".2"/><path d="M25 51h250M25 315h250" stroke="#b3935a"/><text x="150" y="37" text-anchor="middle" fill="#c4af85" font-family="serif" font-size="14" letter-spacing="6">1622 · 海疆</text><g stroke="#ebcb92" stroke-width="3"><path d="M96 81v202M198 81v202"/><path d="M98 84h61l-15 36 15 43H98Z" fill="#9b4434"/><path d="M196 84h-62l15 36-15 43h62Z" fill="#3c6d7b"/><path d="M88 224q57-58 115 0m0 0-12-30m12 30-33-2M206 243q-60 54-114 0m0 0 9 27m-9-27 29 2" fill="none"/></g><rect x="27" y="324" width="246" height="53" rx="4" fill="#9e4939" stroke="#dcba7b"/><text x="150" y="359" text-anchor="middle" fill="#fff0c5" font-family="serif" font-weight="bold" font-size="31">移师换防</text><text x="150" y="403" text-anchor="middle" fill="#d6cbb0" font-family="sans-serif" font-size="13">计策 · 双方交换位置</text></svg>